<?xml version="1.0" encoding="utf-8"?>
<!-- Generator: Adobe Illustrator 27.3.1, SVG Export Plug-In . SVG Version: 6.00 Build 0)  -->
<svg version="1.1" id="Layer_1" xmlns="http://www.w3.org/2000/svg" xmlns:xlink="http://www.w3.org/1999/xlink" x="0px" y="0px"
	 viewBox="0 0 875.6 203.9" style="enable-background:new 0 0 875.6 203.9;" xml:space="preserve">
<style type="text/css">
	.st0{fill:none;stroke:#022831;stroke-width:4;stroke-linecap:round;stroke-linejoin:round;}
	.st1{fill:none;stroke:#022831;stroke-width:4;stroke-linecap:round;stroke-linejoin:round;stroke-dasharray:0,0,7.0082,15.0176;}
	.st2{fill:#022831;}
</style>
<g id="path">
	<path class="st0" d="M23.9,118.5c0,0,0.9-0.8,2.8-2"/>
	<path class="st1" d="M39.6,108.7c29.1-15.5,98.5-41.4,206.2-15.4c68.4,16.5,113.2,48.6,166.7,75.8c64.4,32.7,174.7,45.1,245,17.5
		c69.1-27.1,97.8-37.6,139.2-78.1"/>
	<path class="st0" d="M802,103.2c0.8-0.8,1.6-1.7,2.4-2.5"/>
</g>
<g id="marker">
	<circle class="st2" cx="23.9" cy="118.5" r="7.5"/>
	<path class="st2" d="M42.9,5.2C22.7,1.8,3.7,15.4,0.3,35.6s24.2,68.6,24.2,68.6s45.4-36.3,48.8-56.4C76.7,27.6,63.1,8.6,42.9,5.2
		L42.9,5.2z M32.8,63.9c-12.3-2.1-20.6-13.7-18.5-26s13.7-20.6,26-18.5c12.3,2.1,20.6,13.7,18.5,26S45.1,65.9,32.8,63.9L32.8,63.9z"
		/>
</g>
<g id="plane">
	<path class="st2" d="M852,10.5c-5.5,9.1-12,19.7-13.5,22.1c-0.2,0.3-0.5,0.5-0.9,0.5l-10.6-0.3c0,0,0.1-0.2,0.5-0.6
		c0.3-0.3,0.2-0.7-0.2-1c-1.2-1.2-4.1-3.3-4.1-3.3c-0.4-0.4-1-0.3-1.4,0.1l-4.2,4.5c-0.2,0.2-0.5,0.3-0.8,0.3l-7.2-0.2
		c0,0,0.1-0.1,0.4-0.5c0.3-0.2,0.2-0.6-0.1-0.9c-1.1-1-4.2-3-4.2-3c-0.4-0.3-1-0.3-1.3,0.1l-3.9,4.2c-0.2,0.2-0.5,0.3-0.8,0.3
		l-7.3-0.4c-0.3,0-0.6,0.1-0.8,0.3l-4.3,4.6c-0.5,0.5-0.3,1.3,0.3,1.6L823,55.5c0.5,0.3,0.7,0.9,0.4,1.4l-12.5,21.3
		c-0.2,0.3-0.5,0.5-0.8,0.5l-14.7,1c-0.3,0-0.6,0.2-0.8,0.5l-4.8,7.9c-0.3,0.6,0,1.3,0.6,1.5l15,3.9c0.5,0.1,0.9,0.7,0.7,1.2l-1.7,6
		c-0.3,0.9,0.8,1.6,1.6,1.1l5.1-3.7c0.4-0.3,1.1-0.2,1.4,0.2l9.1,12.5c0.4,0.5,1.2,0.6,1.6,0l5.6-7.4c0.2-0.3,0.3-0.6,0.2-0.9
		l-4.5-14c-0.1-0.3,0-0.7,0.2-0.9l15.2-19.5c0.4-0.5,1-0.5,1.5-0.1l28.5,26.7c0.5,0.5,1.3,0.3,1.6-0.3l2.7-5.7
		c0.1-0.3,0.1-0.6,0-0.8l-3-6.6c-0.1-0.3-0.1-0.6,0-0.8l2.5-5.2c0.2-0.5,0.1-1-0.4-1.3c0,0-2.9-2.1-4.3-2.8c-0.4-0.2-0.7,0-0.9,0.2
		l-0.3,0.4l-2.8-6.5c-0.1-0.3-0.1-0.6,0-0.8l2.6-5.5c0.2-0.5,0-1.1-0.4-1.3c0,0-3.3-2.1-4.8-2.7c-0.4-0.2-0.7,0.2-0.8,0.3
		c-0.2,0.4-0.4,0.8-0.4,0.8l-4.2-9.8c-0.1-0.3-0.1-0.7,0.1-1c1.8-2.2,9.7-11.9,15.3-22c0-0.1,0.1-0.1,0.1-0.2
		c6.7-22,1.4-21.8,1.4-21.8s-3.9-5.7-21.4,9.2C852.2,10.3,852.1,10.4,852,10.5L852,10.5z"/>
</g>
</svg>
