<?xml version="1.0" encoding="UTF-8"?><svg id="Layer_1" xmlns="http://www.w3.org/2000/svg" xmlns:xlink="http://www.w3.org/1999/xlink" viewBox="0 0 45.7204 26.2802"><defs><style>.cls-1{fill:#012831;}.cls-2{fill:none;}</style><symbol id="Arrow_26" viewBox="0 0 45.7203 26.2802"><rect class="cls-2" x="0" width="45.7203" height="26.2802"/><path class="cls-1" d="m1,19.479h20.9292c.5523,0,1,.4477,1,1v4.0703c0,.7695.8328,1.2507,1.4995.8663l19.789-11.4101c.6674-.3848.6673-1.3479,0-1.7327L24.4287.8644c-.6667-.3843-1.4994.0968-1.4994.8663v4.0704c0,.5523-.4477,1-1,1H1c-.5523,0-1,.4477-1,1v10.6777c0,.5523.4477,1,1,1Z"/></symbol></defs><use width="45.7203" height="26.2802" transform="translate(45.7204) rotate(-180) scale(1 -1)" xlink:href="#Arrow_26"/></svg>